# xmcd
#
# Track frame offsets:
#	150
#	14512
#	30972
#	44978
#	54808
#	66545
#	77818
#	92063
#	103821
#	115594
#	129314
#	141159
#	155088
#
# Disc length: 2243 seconds
#
# Revision: 0
# Processed by: cddbd v1.5.1PL0 Copyright (c) Steve Scherf et al.
# Submitted via: audiograbber 1.82.02
#
DISCID=b008c10d
DTITLE=Nugget - East Of Kentucky
DYEAR=2004
DGENRE=Bluegrass
TTITLE0=One Life
TTITLE1=In Those Mines
TTITLE2=Spin On A Red Brick Floor
TTITLE3=I'm Hangin' Around
TTITLE4=Ridin' The L&N
TTITLE5=The Only Wind That Blows
TTITLE6=I Miss You
TTITLE7=East Of Kentucky
TTITLE8=Slow Learner
TTITLE9=Stop Me (I'm Falling In Love With You)
TTITLE10=Picture In A Tear
TTITLE11=Mr. Sandmann
TTITLE12=The Boys Are Back In Town
EXTD="Hey, where are you guys from?"\n"We're from Vienna, Austria."\n"Where's t
EXTD=hat?"\n"It's East of Kentucky!"
EXTT0=
EXTT1=
EXTT2=
EXTT3=
EXTT4=
EXTT5=
EXTT6=
EXTT7=Helmut Mittereggers Instrumental
EXTT8=
EXTT9=
EXTT10=
EXTT11=
EXTT12=
PLAYORDER=
